<svg t="1727243100817" class="icon" viewBox="0 0 1024 1024" version="1.1" xmlns="http://www.w3.org/2000/svg" p-id="7903" width="200" height="200"><path d="M418.037453 538.846442H64.559301a63.9201 63.9201 0 0 0-63.9201 63.9201V958.801498a63.9201 63.9201 0 0 0 63.9201 63.9201h353.478152a63.9201 63.9201 0 0 0 63.9201-63.9201V602.766542a63.9201 63.9201 0 0 0-63.9201-63.9201z m0 419.955056H64.559301V602.766542h353.478152z" fill="" p-id="7904"></path><path d="M145.418227 684.90387h191.7603v191.7603h-191.7603zM418.037453 0H64.559301a63.9201 63.9201 0 0 0-63.9201 63.9201v347.086142a63.9201 63.9201 0 0 0 63.9201 63.9201h353.478152a63.9201 63.9201 0 0 0 63.9201-63.9201V63.9201a63.9201 63.9201 0 0 0-63.9201-63.9201z m0 411.006242H64.559301V63.9201h353.478152z" fill="" p-id="7905"></path><path d="M145.418227 141.583021h191.7603v191.7603h-191.7603zM991.400749 537.88764H577.518102a31.96005 31.96005 0 0 0-29.722846 40.589264V990.761548a31.96005 31.96005 0 0 0 63.9201 0V601.80774H991.400749a31.96005 31.96005 0 0 0 0-63.9201zM959.440699 0H609.797753a63.9201 63.9201 0 0 0-63.9201 63.9201v347.086142a63.9201 63.9201 0 0 0 63.9201 63.9201H959.440699a63.9201 63.9201 0 0 0 63.9201-63.9201V63.9201a63.9201 63.9201 0 0 0-63.9201-63.9201z m0 411.006242H609.797753V63.9201H959.440699z" fill="" p-id="7906"></path><path d="M688.739076 141.583021h191.7603v191.7603h-191.7603zM939.625468 668.604245h82.456929v82.456929h-82.456929zM719.420724 668.604245h-82.456929v82.456929h82.456929v162.996254h82.456929V750.741573h-82.456929v-82.137328zM636.963795 941.223471h82.456929v82.456929h-82.456929zM818.496879 709.513109h82.456929v82.456928h-82.456929zM752.659176 614.59176h82.456929v82.456929h-82.456929zM815.620474 936.109863h82.456929v82.456929H815.620474zM939.625468 880.179775h82.456929v143.820225h-82.456929z" fill="" p-id="7907"></path></svg>