<?xml version="1.0" standalone="no"?><!DOCTYPE svg PUBLIC "-//W3C//DTD SVG 1.1//EN" "http://www.w3.org/Graphics/SVG/1.1/DTD/svg11.dtd"><svg t="1727071539834" class="icon" viewBox="0 0 1293 1024" version="1.1" xmlns="http://www.w3.org/2000/svg" p-id="4991" xmlns:xlink="http://www.w3.org/1999/xlink" width="252.5390625" height="200"><path d="M53.894737 692.978526l171.277474-154.138947a26.947368 26.947368 0 0 1 28.995368-4.581053l159.905684 71.141053 288.229053-326.817684a26.947368 26.947368 0 1 1 40.421052 35.678316l-301.271579 341.692631a26.947368 26.947368 0 0 1-31.205052 6.736842l-162.007579-72.111158L53.894737 765.520842V970.105263h528.330105a26.947368 26.947368 0 0 1 0 53.894737H26.947368a26.947368 26.947368 0 0 1-26.947368-26.947368v-243.442527V26.947368A26.947368 26.947368 0 0 1 26.947368 0h862.31579a26.947368 26.947368 0 0 1 26.947368 26.947368v383.029895a26.947368 26.947368 0 1 1-53.894737 0V53.894737H53.894737v639.083789z m577.482105 88.656842a404.210526 404.210526 0 0 0 571.607579-1.455157l25.6-25.70779-24.683789-24.953263a404.210526 404.210526 0 0 0-571.661474-2.802526l-28.079158 27.863579 27.216842 27.055157z m-84.453053-46.241684l47.427369-46.942316a458.105263 458.105263 0 0 1 647.814737 3.125895l43.493052 43.978105a26.947368 26.947368 0 0 1 0 37.99579l-44.463158 44.624842a458.105263 458.105263 0 0 1-647.814736 1.670737l-46.511158-46.241684a26.947368 26.947368 0 0 1 0.053894-38.265264zM916.210526 808.421053a53.894737 53.894737 0 1 1 0-107.789474 53.894737 53.894737 0 0 1 0 107.789474zM323.368421 377.263158a107.789474 107.789474 0 1 1 0-215.578947 107.789474 107.789474 0 0 1 0 215.578947z m0-53.894737a53.894737 53.894737 0 1 0 0-107.789474 53.894737 53.894737 0 0 0 0 107.789474z" fill="#999999" p-id="4992"></path></svg>