<?xml version="1.0" standalone="no"?><!DOCTYPE svg PUBLIC "-//W3C//DTD SVG 1.1//EN" "http://www.w3.org/Graphics/SVG/1.1/DTD/svg11.dtd"><svg t="1727072192434" class="icon" viewBox="0 0 1024 1024" version="1.1" xmlns="http://www.w3.org/2000/svg" p-id="1520" xmlns:xlink="http://www.w3.org/1999/xlink" width="200" height="200"><path d="M257 539.8l75.3-137s10.3 5.8 11.4 8.1 47.3-86.7 47.3-86.7l62.2 77.4L464 389l133.5 150.8" p-id="1521" fill="#dbdbdb"></path><path d="M445.2 371.1l67.9-90.7s5.7-12.1 16-1.7c2.3 0 160.8 261.2 160.8 261.2h-75.3L465.2 369.4l-11.4 9.2-8.6-7.5zM631.2 412.1l26.2-34.1s8.6-13.9 24.5 4.6C689.9 388.4 800 541 800 541l-98.1-1.2-73-129.5" p-id="1522" fill="#dbdbdb"></path><path d="M662 206m-46 0a46 46 0 1 0 92 0 46 46 0 1 0-92 0Z" p-id="1523" fill="#dbdbdb"></path><path d="M251 570.4s90 19.6 223.2 9.7c3-0.2 6-0.2 9-0.9C505 574 646.7 529.3 787 589.7c-4.7-1.6-173-37.1-296.4 2.2-4.2 1.4-8.6 2.2-13.1 2.6-28.6 2.5-162.1 27.7-226.5-17.7M366 635.3l103.2-12c0.5-0.1 0.9-0.2 1.4-0.3C482 622 636 584.1 727 646c-2.7 1.3-149-32-207.8-22.8C468.6 639.3 389 633 366 635.3zM420 670.4l87.7-6.5c0.4 0 0.8-0.1 1.2-0.1 9.7-0.6 140.6-21.2 218.1 12.5-2.3 0.7-126.7-17.4-176.7-12.4-43.1 8.7-110.7 5.3-130.3 6.5z" p-id="1524" fill="#dbdbdb"></path></svg>