<?xml version="1.0" standalone="no"?><!DOCTYPE svg PUBLIC "-//W3C//DTD SVG 1.1//EN" "http://www.w3.org/Graphics/SVG/1.1/DTD/svg11.dtd"><svg t="1727069921825" class="icon" viewBox="0 0 1024 1024" version="1.1" xmlns="http://www.w3.org/2000/svg" p-id="2155" xmlns:xlink="http://www.w3.org/1999/xlink" width="200" height="200"><path d="M899.8912 204.88192l-775.82336 0c-45.83424 0-83.10784 34.44736-83.10784 76.8l0 460.8c0 42.35264 37.2736 76.8 83.10784 76.8l775.82336 0c45.79328 0 83.10784-34.44736 83.10784-76.8L982.99904 281.68192C982.99904 239.32928 945.64352 204.88192 899.8912 204.88192L899.8912 204.88192zM96.37888 742.48192 96.37888 291.51232l244.736 226.0992-0.24576 0-244.49024 225.93536C96.37888 743.17824 96.37888 742.8096 96.37888 742.48192L96.37888 742.48192zM136.3968 256.08192l751.12448 0-375.52128 347.01312L136.3968 256.08192 136.3968 256.08192zM380.1088 553.69728l131.85024 121.856 132.46464-122.42944 232.69376 214.99904-729.00608 0L380.1088 553.69728 380.1088 553.69728zM684.4416 517.61152l-1.59744 0 244.736-226.0992 0 450.7648L684.4416 517.61152 684.4416 517.61152z" fill="#bfbfbf" p-id="2156"></path></svg>