<svg t="1727242433539" class="icon" viewBox="0 0 1024 1024" version="1.1" xmlns="http://www.w3.org/2000/svg" p-id="6835" width="200" height="200"><path d="M512 1024C229.2224 1024 0 794.7776 0 512S229.2224 0 512 0s512 229.2224 512 512-229.2224 512-512 512z m0-998.4C243.3792 25.6 25.6 243.3792 25.6 512s217.7792 486.4 486.4 486.4 486.4-217.7792 486.4-486.4S780.6208 25.6 512 25.6z" fill="" p-id="6836"></path><path d="M512 1024C229.2224 1024 0 794.7776 0 512S229.2224 0 512 0s512 229.2224 512 512-229.2224 512-512 512z m0-998.4C243.3792 25.6 25.6 243.3792 25.6 512s217.7792 486.4 486.4 486.4 486.4-217.7792 486.4-486.4S780.6208 25.6 512 25.6z" fill="" p-id="6837"></path><path d="M743.9104 332.8H280.0896C252.672 332.8 230.4 354.3296 230.4 380.8v288C230.4 695.2704 252.672 716.8 280.0896 716.8h463.8208c27.392 0 49.6896-21.5296 49.6896-48v-288C793.6 354.3296 771.2512 332.8 743.9104 332.8zM263.552 668.8v-281.856l146.304 141.312h-0.1536l-146.176 141.2096v-0.6656h0.0256z m23.9104-303.9744H736.512l-224.4864 216.8832-224.5632-216.8832z m145.6896 185.984l78.8224 76.16 79.2064-76.4928 139.136 134.3744H294.4512l138.7008-134.0416z m181.9648-22.5536h-0.9472l146.304-141.312V668.672l-145.3568-140.416z" fill="" p-id="6838"></path></svg>